<?xml version="1.0" standalone="no"?>
<!DOCTYPE svg PUBLIC "-//W3C//DTD SVG 20010904//EN"
 "http://www.w3.org/TR/2001/REC-SVG-20010904/DTD/svg10.dtd">
<svg version="1.0" xmlns="http://www.w3.org/2000/svg"
 width="2560.000000pt" height="1600.000000pt" viewBox="0 0 2560.000000 1600.000000"
 preserveAspectRatio="xMidYMid meet">

<g transform="translate(0.000000,1600.000000) scale(0.100000,-0.100000)"
fill="#000000" stroke="none">
<path d="M4880 11310 c-25 -4 -84 -13 -132 -20 l-88 -12 0 -68 c0 -61 3 -71
25 -88 20 -16 30 -40 46 -113 33 -151 70 -249 108 -287 58 -58 123 -81 248
-89 281 -16 425 84 533 367 40 107 63 128 122 112 30 -8 37 -17 93 -145 85
-194 138 -255 257 -297 164 -58 379 -51 478 14 52 34 96 125 126 258 33 147
30 141 64 183 26 33 30 46 30 100 l0 62 -133 18 c-109 14 -179 17 -378 13
l-244 -5 -125 -39 c-172 -52 -207 -53 -360 -10 -69 19 -160 39 -203 45 -88 12
-397 13 -467 1z m503 -76 c131 -30 157 -54 157 -150 0 -117 -62 -259 -142
-330 -59 -52 -153 -77 -283 -77 -188 1 -236 37 -286 213 -23 79 -25 216 -5
265 30 71 109 93 329 94 112 1 179 -4 230 -15z m1112 0 c118 -30 140 -61 139
-189 -1 -102 -23 -196 -62 -269 -22 -40 -37 -54 -80 -74 -47 -21 -68 -24 -165
-24 -124 0 -214 22 -275 69 -99 75 -180 307 -142 407 24 64 140 94 365 95 115
1 178 -3 220 -15z"/>
<path d="M5249 11025 c-29 -15 -59 -70 -59 -105 0 -36 31 -90 61 -105 32 -17
97 -19 119 -5 12 8 9 10 -12 10 -16 0 -37 9 -48 20 -41 41 -13 110 43 110 39
0 50 -7 70 -45 l16 -30 1 38 c0 46 -20 88 -54 111 -31 20 -102 20 -137 1z"/>
<path d="M6389 11007 c-69 -46 -80 -125 -26 -183 26 -29 42 -37 80 -41 31 -4
47 -2 47 6 0 6 -6 11 -13 11 -22 0 -47 34 -47 63 0 35 33 67 68 67 29 0 62
-26 62 -48 0 -7 5 -12 10 -12 15 0 12 45 -4 85 -17 41 -68 75 -112 75 -17 0
-46 -10 -65 -23z"/>
<path d="M19015 11163 c-206 -24 -305 -51 -436 -120 -314 -164 -480 -461 -554
-993 -22 -155 -32 -661 -16 -841 50 -576 207 -897 532 -1083 178 -102 479
-152 748 -127 506 49 804 311 926 811 119 491 94 1284 -53 1695 -140 395 -425
611 -861 655 -98 10 -221 11 -286 3z m308 -442 c172 -44 284 -133 356 -283 96
-200 140 -540 128 -998 -15 -579 -109 -836 -348 -954 -107 -53 -197 -69 -349
-63 -370 14 -533 188 -606 647 -22 142 -31 632 -14 824 30 362 96 562 225 691
69 69 138 106 245 134 103 27 261 28 363 2z"/>
<path d="M15992 10023 l-423 -1088 1 -182 0 -183 720 0 720 0 0 -280 0 -280
225 0 225 0 0 280 0 280 175 0 175 0 0 215 0 215 -175 0 -175 0 0 480 0 480
-225 0 -225 0 0 -480 0 -480 -460 0 c-253 0 -460 2 -460 4 0 4 725 1867 799
2054 l21 52 -248 0 -248 0 -422 -1087z"/>
<path d="M20922 10023 l-423 -1088 1 -182 0 -183 720 0 720 0 0 -280 0 -280
225 0 225 0 0 280 0 280 175 0 175 0 0 215 0 215 -175 0 -175 0 0 480 0 480
-225 0 -225 0 0 -480 0 -480 -460 0 c-253 0 -460 2 -460 4 0 4 725 1867 799
2054 l21 52 -248 0 -248 0 -422 -1087z"/>
<path d="M5575 10260 c-198 -13 -267 -34 -332 -102 -61 -64 -81 -162 -47 -235
48 -100 145 -85 299 48 126 108 244 152 348 129 32 -6 82 -30 127 -60 139 -91
185 -98 254 -37 97 85 29 191 -152 238 -92 24 -299 32 -497 19z"/>
<path d="M9860 9888 c-5 -13 -70 -437 -145 -942 -74 -506 -136 -921 -138 -922
-1 -1 -354 -5 -784 -10 l-783 -7 2 -61 1 -61 7 60 7 60 1 -57 2 -57 793 -7
c989 -7 2460 -5 2469 4 11 12 302 2001 294 2010 -4 4 -392 8 -862 10 l-854 2
-10 -22z"/>
<path d="M6947 9455 l-127 -165 -150 -100 -149 -99 -50 62 c-27 34 -71 83 -98
109 l-48 47 -60 -45 c-78 -59 -242 -139 -325 -159 -241 -56 -501 -3 -723 147
l-59 40 -28 -27 c-16 -15 -50 -58 -77 -95 l-48 -67 -145 97 c-142 96 -147 100
-269 249 -69 83 -131 151 -138 151 -26 0 -169 -60 -229 -96 -61 -36 -154 -120
-154 -139 0 -10 97 -180 442 -775 l166 -286 -49 -176 c-26 -98 -51 -193 -55
-213 l-6 -35 1261 0 c693 0 1261 2 1261 4 0 12 -90 261 -136 380 -31 76 -53
143 -51 150 3 6 133 222 290 480 l286 469 -20 29 c-38 53 -165 138 -284 190
-105 46 -86 56 -228 -127z m-917 -1055 l0 -130 -88 0 c-55 0 -92 4 -100 12 -7
7 -12 42 -12 88 0 46 5 81 12 88 7 7 40 12 80 12 l68 0 0 30 c0 23 4 30 20 30
19 0 20 -7 20 -130z m-792 48 c-2 -15 -18 -31 -45 -46 -24 -13 -43 -27 -43
-30 0 -4 20 -19 45 -34 30 -18 45 -34 45 -48 0 -11 -3 -20 -7 -20 -4 0 -38 18
-76 41 -88 52 -87 68 3 121 76 44 82 45 78 16z m340 5 c-3 -15 -16 -18 -86
-21 l-82 -3 0 -59 0 -59 82 -3 c70 -3 83 -6 86 -20 3 -16 -6 -18 -90 -18 -60
0 -98 4 -106 12 -7 7 -12 42 -12 88 0 46 5 81 12 88 8 8 46 12 106 12 84 0 93
-2 90 -17z m220 5 c7 -7 12 -42 12 -88 0 -46 -5 -81 -12 -88 -7 -7 -42 -12
-88 -12 -46 0 -81 5 -88 12 -7 7 -12 42 -12 88 0 46 5 81 12 88 7 7 42 12 88
12 46 0 81 -5 88 -12z m432 -8 c0 -18 -7 -20 -60 -20 l-60 0 0 -80 c0 -73 -2
-80 -20 -80 -18 0 -20 7 -20 88 0 55 4 92 12 100 7 7 40 12 80 12 61 0 68 -2
68 -20z m263 -60 c20 -17 -7 -47 -73 -83 l-70 -38 0 24 c0 18 11 30 45 48 25
13 45 26 45 29 0 3 -20 16 -45 29 -35 18 -45 29 -45 48 l0 25 68 -37 c37 -21
71 -41 75 -45z"/>
<path d="M5870 8370 l0 -60 60 0 60 0 0 60 0 60 -60 0 -60 0 0 -60z"/>
<path d="M5650 8370 l0 -60 60 0 60 0 0 60 0 60 -60 0 -60 0 0 -60z"/>
<path d="M1910 7305 l0 -105 5645 0 5645 0 0 105 0 105 -5645 0 -5645 0 0
-105z"/>
<path d="M15790 6865 c0 -168 1 -175 20 -175 19 0 20 7 20 95 0 91 1 95 24
101 13 3 36 4 52 2 34 -4 42 -25 43 -125 1 -66 3 -73 21 -73 18 0 20 7 20 85
0 110 -16 151 -62 160 -18 4 -45 2 -60 -4 -14 -5 -29 -7 -32 -4 -3 4 -6 30 -6
60 0 46 -2 53 -20 53 -19 0 -20 -7 -20 -175z"/>
<path d="M20500 6866 l0 -174 40 -7 c55 -9 115 2 136 26 26 29 32 145 10 187
-18 36 -64 50 -108 33 -14 -5 -29 -7 -32 -4 -3 4 -6 30 -6 60 0 46 -2 53 -20
53 -19 0 -20 -7 -20 -174z m139 15 c22 -14 26 -96 7 -126 -14 -21 -24 -25 -61
-25 l-45 0 0 73 c0 41 3 77 7 80 9 10 76 8 92 -2z"/>
<path d="M15512 6868 c-23 -90 -42 -167 -42 -171 0 -4 9 -7 20 -7 14 0 21 9
26 35 l6 35 74 0 73 0 9 -32 c6 -23 15 -34 30 -36 26 -4 29 -25 -28 193 l-37
140 -45 3 -45 3 -41 -163z m123 25 l22 -83 -59 0 c-52 0 -59 2 -54 18 3 9 13
48 22 85 23 93 40 87 69 -20z"/>
<path d="M16390 6920 c0 -100 2 -110 19 -110 16 0 19 11 24 83 11 134 11 137
-18 137 l-25 0 0 -110z"/>
<path d="M16707 6943 c25 -49 50 -92 55 -97 4 -6 8 -43 8 -83 0 -66 2 -73 20
-73 18 0 20 7 20 73 0 70 3 79 50 166 28 51 50 94 50 97 0 2 -10 4 -22 4 -18
0 -31 -16 -62 -71 l-38 -71 -19 31 c-10 16 -27 48 -39 70 -16 31 -26 41 -45
41 -25 0 -25 0 22 -87z"/>
<path d="M18420 6920 c0 -100 2 -110 19 -110 16 0 19 11 24 83 11 134 11 137
-18 137 l-25 0 0 -110z"/>
<path d="M18737 6943 c25 -49 50 -92 55 -97 4 -6 8 -43 8 -83 0 -66 2 -73 20
-73 18 0 20 7 20 73 0 70 3 79 50 166 28 51 50 94 50 97 0 2 -10 4 -22 4 -18
0 -31 -16 -62 -71 l-38 -71 -19 31 c-10 16 -27 48 -39 70 -16 31 -26 41 -45
41 -25 0 -25 0 22 -87z"/>
<path d="M22530 6920 c0 -100 2 -110 19 -110 16 0 19 11 24 83 11 134 11 137
-18 137 l-25 0 0 -110z"/>
<path d="M16088 6933 c-19 -3 -28 -10 -28 -23 0 -16 9 -19 63 -22 55 -3 62 -5
65 -25 3 -19 -3 -22 -45 -28 -91 -12 -109 -32 -91 -103 12 -45 43 -58 103 -43
31 8 51 8 65 1 10 -5 23 -10 29 -10 17 0 13 47 -4 54 -12 4 -15 23 -15 84 0
49 -5 85 -13 96 -14 19 -77 28 -129 19z m102 -158 c0 -28 -4 -36 -24 -41 -13
-3 -35 -4 -47 -2 -19 2 -24 9 -24 33 0 26 4 31 35 36 60 11 60 11 60 -26z"/>
<path d="M16999 6929 c-49 -19 -70 -124 -40 -197 24 -59 129 -68 171 -15 30
39 29 152 -3 188 -25 30 -85 41 -128 24z m93 -56 c13 -11 18 -30 18 -64 0 -57
-18 -79 -65 -79 -41 0 -55 20 -55 80 0 58 14 80 52 80 17 0 40 -7 50 -17z"/>
<path d="M17650 6933 c-31 -12 -50 -37 -50 -68 0 -41 17 -55 83 -70 45 -10 52
-15 52 -36 0 -23 -4 -24 -67 -27 -59 -3 -68 -5 -68 -22 0 -15 10 -20 53 -25
88 -11 130 17 125 82 -3 36 -6 39 -48 52 -82 25 -92 30 -88 49 3 14 16 18 66
20 52 2 62 6 62 21 0 24 -78 39 -120 24z"/>
<path d="M17893 6930 c-35 -14 -55 -55 -57 -113 -1 -80 9 -106 50 -123 51 -21
144 -10 144 17 0 17 -8 19 -63 19 -65 0 -87 11 -87 42 0 16 9 18 75 18 80 0
81 1 77 55 -6 78 -66 114 -139 85z m85 -52 c7 -7 12 -20 12 -30 0 -15 -9 -18
-55 -18 -46 0 -55 3 -55 18 0 27 20 42 55 42 17 0 36 -5 43 -12z"/>
<path d="M18143 6930 c-35 -14 -55 -55 -57 -113 -1 -80 9 -106 50 -123 51 -21
144 -10 144 17 0 17 -8 19 -63 19 -65 0 -87 11 -87 42 0 16 9 18 75 18 80 0
81 1 77 55 -6 78 -66 114 -139 85z m85 -52 c7 -7 12 -20 12 -30 0 -15 -9 -18
-55 -18 -46 0 -55 3 -55 18 0 27 20 42 55 42 17 0 36 -5 43 -12z"/>
<path d="M19029 6929 c-49 -19 -70 -124 -40 -197 24 -59 129 -68 171 -15 30
39 29 152 -3 188 -25 30 -85 41 -128 24z m93 -56 c13 -11 18 -30 18 -64 0 -57
-18 -79 -65 -79 -41 0 -55 20 -55 80 0 58 14 80 52 80 17 0 40 -7 50 -17z"/>
<path d="M19668 6924 c-15 -8 -31 -27 -35 -42 -12 -44 -6 -141 11 -167 28 -43
146 -47 146 -5 0 17 -7 20 -50 20 -58 0 -70 14 -70 84 0 58 18 76 76 76 36 0
44 3 44 19 0 32 -74 41 -122 15z"/>
<path d="M19878 6933 c-19 -3 -28 -10 -28 -23 0 -16 9 -19 63 -22 55 -3 62 -5
65 -25 3 -19 -3 -22 -45 -28 -91 -12 -109 -32 -91 -103 12 -45 43 -58 103 -43
31 8 51 8 65 1 10 -5 23 -10 29 -10 17 0 13 47 -4 54 -12 4 -15 23 -15 84 0
49 -5 85 -13 96 -14 19 -77 28 -129 19z m102 -158 c0 -28 -4 -36 -24 -41 -13
-3 -35 -4 -47 -2 -19 2 -24 9 -24 33 0 26 4 31 35 36 60 11 60 11 60 -26z"/>
<path d="M20190 6931 c-8 -6 -30 -8 -47 -5 l-33 6 0 -121 c0 -114 1 -121 20
-121 18 0 20 7 20 89 0 101 8 114 66 109 46 -4 52 -18 53 -125 1 -67 3 -73 22
-73 21 0 21 4 17 105 -2 77 -8 109 -19 120 -19 20 -79 29 -99 16z"/>
<path d="M20803 6930 c-35 -14 -55 -55 -57 -113 -1 -80 9 -106 50 -123 51 -21
144 -10 144 17 0 17 -8 19 -63 19 -65 0 -87 11 -87 42 0 16 9 18 75 18 80 0
81 1 77 55 -6 78 -66 114 -139 85z m85 -52 c7 -7 12 -20 12 -30 0 -15 -9 -18
-55 -18 -46 0 -55 3 -55 18 0 27 20 42 55 42 17 0 36 -5 43 -12z"/>
<path d="M21581 6922 c-26 -13 -35 -14 -38 -4 -3 6 -13 12 -24 12 -18 0 -19
-8 -19 -120 0 -113 1 -120 20 -120 18 0 20 7 20 86 l0 86 40 15 c31 12 40 21
40 40 0 12 -1 23 -2 22 -2 0 -18 -8 -37 -17z"/>
<path d="M21709 6929 c-49 -19 -70 -124 -40 -197 24 -59 129 -68 171 -15 30
39 29 152 -3 188 -25 30 -85 41 -128 24z m93 -56 c13 -11 18 -30 18 -64 0 -57
-18 -79 -65 -79 -41 0 -55 20 -55 80 0 58 14 80 52 80 17 0 40 -7 50 -17z"/>
<path d="M22010 6931 c-8 -6 -30 -8 -47 -5 l-33 6 0 -121 c0 -114 1 -121 20
-121 18 0 20 7 20 89 0 101 8 114 66 109 46 -4 52 -18 53 -125 1 -67 3 -73 22
-73 21 0 21 4 17 105 -2 77 -8 109 -19 120 -19 20 -79 29 -99 16z"/>
<path d="M22250 6933 c-36 -14 -50 -37 -50 -79 0 -23 6 -49 13 -56 17 -18 13
-79 -7 -111 -27 -40 -13 -85 30 -103 92 -38 174 1 174 85 0 47 -20 62 -88 68
-77 7 -84 28 -12 37 57 8 74 28 68 82 -3 28 -1 34 14 34 11 0 18 7 18 20 0 16
-7 20 -37 20 -21 0 -54 2 -73 5 -19 2 -42 2 -50 -2z m88 -66 c4 -35 -13 -57
-43 -57 -40 0 -55 11 -55 39 0 37 19 52 60 49 30 -3 35 -7 38 -31z m25 -199
c19 -30 -9 -49 -67 -46 -45 3 -51 6 -54 26 -2 13 1 29 7 36 15 17 101 6 114
-16z"/>
<path d="M17220 6830 c0 -95 2 -102 26 -127 22 -22 31 -24 62 -18 20 4 52 7
70 6 l32 -1 0 120 c0 113 -1 120 -20 120 -19 0 -20 -7 -20 -94 0 -102 -2 -106
-59 -106 -44 0 -51 16 -51 112 0 81 -2 88 -20 88 -19 0 -20 -7 -20 -100z"/>
<path d="M19250 6830 c0 -95 2 -102 26 -127 22 -22 31 -24 62 -18 20 4 52 7
70 6 l32 -1 0 120 c0 113 -1 120 -20 120 -19 0 -20 -7 -20 -94 0 -102 -2 -106
-59 -106 -44 0 -51 16 -51 112 0 81 -2 88 -20 88 -19 0 -20 -7 -20 -100z"/>
<path d="M21122 6848 c39 -166 35 -158 72 -158 34 0 34 0 51 73 25 101 30 107
44 51 32 -131 29 -124 66 -124 38 0 34 -8 73 158 l19 82 -21 0 c-19 0 -24 -11
-42 -92 -11 -50 -24 -93 -30 -95 -5 -2 -20 39 -33 92 -21 85 -25 95 -46 95
-20 0 -25 -10 -46 -89 -13 -49 -28 -90 -34 -90 -5 -1 -19 39 -30 89 -17 79
-22 90 -41 90 l-21 0 19 -82z"/>
<path d="M16390 6720 c0 -25 4 -30 25 -30 21 0 25 5 25 30 0 25 -4 30 -25 30
-21 0 -25 -5 -25 -30z"/>
<path d="M18420 6720 c0 -25 4 -30 25 -30 21 0 25 5 25 30 0 25 -4 30 -25 30
-21 0 -25 -5 -25 -30z"/>
<path d="M22530 6720 c0 -25 4 -30 25 -30 21 0 25 5 25 30 0 25 -4 30 -25 30
-21 0 -25 -5 -25 -30z"/>
<path d="M16400 5435 c0 -168 1 -175 20 -175 19 0 20 7 20 95 0 91 1 95 24
101 13 3 36 4 52 2 34 -4 42 -25 43 -125 1 -66 3 -73 21 -73 18 0 20 7 20 85
0 110 -16 151 -62 160 -18 4 -45 2 -60 -4 -14 -5 -29 -7 -32 -4 -3 4 -6 30 -6
60 0 46 -2 53 -20 53 -19 0 -20 -7 -20 -175z"/>
<path d="M19390 5435 c0 -168 1 -175 20 -175 19 0 20 7 20 95 0 91 1 95 24
101 13 3 36 4 52 2 34 -4 42 -25 43 -125 1 -66 3 -73 21 -73 18 0 20 7 20 85
0 110 -16 151 -62 160 -18 4 -45 2 -60 -4 -14 -5 -29 -7 -32 -4 -3 4 -6 30 -6
60 0 46 -2 53 -20 53 -19 0 -20 -7 -20 -175z"/>
<path d="M20200 5435 c0 -168 1 -175 20 -175 19 0 20 7 20 175 0 168 -1 175
-20 175 -19 0 -20 -7 -20 -175z"/>
<path d="M21400 5436 l0 -174 40 -7 c55 -9 115 2 136 26 26 29 32 145 10 187
-18 36 -64 50 -108 33 -14 -5 -29 -7 -32 -4 -3 4 -6 30 -6 60 0 46 -2 53 -20
53 -19 0 -20 -7 -20 -174z m139 15 c22 -14 26 -96 7 -126 -14 -21 -24 -25 -61
-25 l-45 0 0 73 c0 41 3 77 7 80 9 10 76 8 92 -2z"/>
<path d="M21920 5436 l0 -174 40 -7 c55 -9 115 2 136 26 26 29 32 145 10 187
-18 36 -64 50 -108 33 -14 -5 -29 -7 -32 -4 -3 4 -6 30 -6 60 0 46 -2 53 -20
53 -19 0 -20 -7 -20 -174z m139 15 c22 -14 26 -96 7 -126 -14 -21 -24 -25 -61
-25 l-45 0 0 73 c0 41 3 77 7 80 9 10 76 8 92 -2z"/>
<path d="M22190 5435 c0 -168 1 -175 20 -175 19 0 20 7 20 175 0 168 -1 175
-20 175 -19 0 -20 -7 -20 -175z"/>
<path d="M16100 5575 c0 -18 5 -25 20 -25 15 0 20 7 20 25 0 18 -5 25 -20 25
-15 0 -20 -7 -20 -25z"/>
<path d="M20460 5549 l0 -51 -30 7 c-42 9 -94 -11 -111 -42 -19 -35 -16 -135
4 -167 20 -30 70 -42 110 -27 17 7 27 7 27 1 0 -6 11 -10 25 -10 l25 0 0 170
0 170 -25 0 c-23 0 -25 -3 -25 -51z m-2 -161 l-3 -73 -38 -3 c-51 -4 -67 11
-67 65 0 67 12 83 66 83 l45 0 -3 -72z"/>
<path d="M16230 5530 c0 -23 -4 -30 -20 -30 -15 0 -20 -7 -20 -25 0 -18 5 -25
20 -25 18 0 20 -7 20 -82 0 -93 4 -104 42 -113 36 -9 68 2 68 25 0 14 -9 20
-32 22 l-33 3 -3 73 -3 72 36 0 c31 0 35 3 35 25 0 22 -4 25 -35 25 -32 0 -35
2 -35 30 0 23 -4 30 -20 30 -16 0 -20 -7 -20 -30z"/>
<path d="M15893 5500 c-35 -14 -55 -55 -57 -113 -1 -80 9 -106 50 -123 51 -21
144 -10 144 17 0 17 -8 19 -63 19 -65 0 -87 11 -87 42 0 16 9 18 75 18 80 0
81 1 77 55 -6 78 -66 114 -139 85z m85 -52 c7 -7 12 -20 12 -30 0 -15 -9 -18
-55 -18 -46 0 -55 3 -55 18 0 27 20 42 55 42 17 0 36 -5 43 -12z"/>
<path d="M16713 5500 c-35 -14 -55 -55 -57 -113 -1 -80 9 -106 50 -123 51 -21
144 -10 144 17 0 17 -8 19 -63 19 -65 0 -87 11 -87 42 0 16 9 18 75 18 80 0
81 1 77 55 -6 78 -66 114 -139 85z m85 -52 c7 -7 12 -20 12 -30 0 -15 -9 -18
-55 -18 -46 0 -55 3 -55 18 0 27 20 42 55 42 17 0 36 -5 43 -12z"/>
<path d="M17001 5492 c-26 -13 -35 -14 -38 -4 -3 6 -13 12 -24 12 -18 0 -19
-8 -19 -120 0 -113 1 -120 20 -120 18 0 20 7 20 86 l0 86 40 15 c31 12 40 21
40 40 0 12 -1 23 -2 22 -2 0 -18 -8 -37 -17z"/>
<path d="M17608 5503 c-19 -3 -28 -10 -28 -23 0 -16 9 -19 63 -22 55 -3 62 -5
65 -25 3 -19 -3 -22 -45 -28 -91 -12 -109 -32 -91 -103 12 -45 43 -58 103 -43
31 8 51 8 65 1 10 -5 23 -10 29 -10 17 0 13 47 -4 54 -12 4 -15 23 -15 84 0
49 -5 85 -13 96 -14 19 -77 28 -129 19z m102 -158 c0 -28 -4 -36 -24 -41 -13
-3 -35 -4 -47 -2 -19 2 -24 9 -24 33 0 26 4 31 35 36 60 11 60 11 60 -26z"/>
<path d="M18539 5499 c-49 -19 -70 -124 -40 -197 24 -59 129 -68 171 -15 30
39 29 152 -3 188 -25 30 -85 41 -128 24z m93 -56 c13 -11 18 -30 18 -64 0 -57
-18 -79 -65 -79 -41 0 -55 20 -55 80 0 58 14 80 52 80 17 0 40 -7 50 -17z"/>
<path d="M19190 5503 c-31 -12 -50 -37 -50 -68 0 -41 17 -55 83 -70 45 -10 52
-15 52 -36 0 -23 -4 -24 -67 -27 -59 -3 -68 -5 -68 -22 0 -15 10 -20 53 -25
88 -11 130 17 125 82 -3 36 -6 39 -48 52 -82 25 -92 30 -88 49 3 14 16 18 66
20 52 2 62 6 62 21 0 24 -78 39 -120 24z"/>
<path d="M19699 5499 c-49 -19 -70 -124 -40 -197 24 -59 129 -68 171 -15 30
39 29 152 -3 188 -25 30 -85 41 -128 24z m93 -56 c13 -11 18 -30 18 -64 0 -57
-18 -79 -65 -79 -41 0 -55 20 -55 80 0 58 14 80 52 80 17 0 40 -7 50 -17z"/>
<path d="M20780 5500 c-8 -5 -30 -7 -47 -4 l-33 6 0 -176 c0 -168 1 -176 19
-176 17 0 20 8 23 51 l3 51 52 2 c75 2 96 25 101 111 3 37 -1 77 -8 94 -17 42
-75 64 -110 41z m64 -62 c21 -29 20 -87 0 -116 -13 -19 -24 -22 -57 -20 l-42
3 -3 65 c-2 52 0 67 14 77 28 20 71 16 88 -9z"/>
<path d="M21051 5492 c-26 -13 -35 -14 -38 -4 -3 6 -13 12 -24 12 -18 0 -19
-8 -19 -120 0 -113 1 -120 20 -120 18 0 20 7 20 86 l0 86 40 15 c31 12 40 21
40 40 0 12 -1 23 -2 22 -2 0 -18 -8 -37 -17z"/>
<path d="M21179 5499 c-49 -19 -70 -124 -40 -197 24 -59 129 -68 171 -15 30
39 29 152 -3 188 -25 30 -85 41 -128 24z m93 -56 c13 -11 18 -30 18 -64 0 -57
-18 -79 -65 -79 -41 0 -55 20 -55 80 0 58 14 80 52 80 17 0 40 -7 50 -17z"/>
<path d="M21688 5503 c-19 -3 -28 -10 -28 -23 0 -16 9 -19 63 -22 55 -3 62 -5
65 -25 3 -19 -3 -22 -45 -28 -91 -12 -109 -32 -91 -103 12 -45 43 -58 103 -43
31 8 51 8 65 1 10 -5 23 -10 29 -10 17 0 13 47 -4 54 -12 4 -15 23 -15 84 0
49 -5 85 -13 96 -14 19 -77 28 -129 19z m102 -158 c0 -28 -4 -36 -24 -41 -13
-3 -35 -4 -47 -2 -19 2 -24 9 -24 33 0 26 4 31 35 36 60 11 60 11 60 -26z"/>
<path d="M16100 5380 c0 -113 1 -120 20 -120 19 0 20 7 20 120 0 113 -1 120
-20 120 -19 0 -20 -7 -20 -120z"/>
<path d="M17202 5418 c39 -166 35 -158 72 -158 34 0 34 0 51 73 25 101 30 107
44 51 32 -131 29 -124 66 -124 38 0 34 -8 73 158 l19 82 -21 0 c-19 0 -24 -11
-42 -92 -11 -50 -24 -93 -30 -95 -5 -2 -20 39 -33 92 -21 85 -25 95 -46 95
-20 0 -25 -10 -46 -89 -13 -49 -28 -90 -34 -90 -5 -1 -19 39 -30 89 -17 79
-22 90 -41 90 l-21 0 19 -82z"/>
<path d="M17831 5393 c36 -136 35 -133 55 -133 17 0 16 -25 -2 -87 -5 -19 -2
-23 14 -23 16 0 24 10 32 43 7 23 27 97 46 164 40 141 40 143 16 143 -19 0
-22 -9 -62 -158 -6 -24 -16 -42 -22 -40 -7 3 -23 47 -38 99 -21 78 -29 95 -47
97 -21 3 -21 3 8 -105z"/>
<path d="M18271 5393 c36 -136 35 -133 55 -133 17 0 16 -25 -2 -87 -5 -19 -2
-23 14 -23 16 0 24 10 32 43 7 23 27 97 46 164 40 141 40 143 16 143 -19 0
-22 -9 -62 -158 -6 -24 -16 -42 -22 -40 -7 3 -23 47 -38 99 -21 78 -29 95 -47
97 -21 3 -21 3 8 -105z"/>
<path d="M18760 5400 c0 -95 2 -102 26 -127 22 -22 31 -24 62 -18 20 4 52 7
70 6 l32 -1 0 120 c0 113 -1 120 -20 120 -19 0 -20 -7 -20 -94 0 -102 -2 -106
-59 -106 -44 0 -51 16 -51 112 0 81 -2 88 -20 88 -19 0 -20 -7 -20 -100z"/>
<path d="M19920 5400 c0 -95 2 -102 26 -127 22 -22 31 -24 62 -18 20 4 52 7
70 6 l32 -1 0 120 c0 113 -1 120 -20 120 -19 0 -20 -7 -20 -94 0 -102 -2 -106
-59 -106 -44 0 -51 16 -51 112 0 81 -2 88 -20 88 -19 0 -20 -7 -20 -100z"/>
<path d="M22311 5393 c36 -136 35 -133 55 -133 17 0 16 -25 -2 -87 -5 -19 -2
-23 14 -23 16 0 24 10 32 43 7 23 27 97 46 164 40 141 40 143 16 143 -19 0
-22 -9 -62 -158 -6 -24 -16 -42 -22 -40 -7 3 -23 47 -38 99 -21 78 -29 95 -47
97 -21 3 -21 3 8 -105z"/>
<path d="M15480 5290 c0 -25 4 -30 25 -30 21 0 25 5 25 30 0 25 -4 30 -25 30
-21 0 -25 -5 -25 -30z"/>
<path d="M15600 5290 c0 -25 4 -30 25 -30 21 0 25 5 25 30 0 25 -4 30 -25 30
-21 0 -25 -5 -25 -30z"/>
<path d="M15720 5290 c0 -25 4 -30 25 -30 21 0 25 5 25 30 0 25 -4 30 -25 30
-21 0 -25 -5 -25 -30z"/>
<path d="M18055 5283 c-3 -21 -9 -48 -12 -60 -4 -18 -1 -23 16 -23 15 0 23 10
31 43 6 23 13 50 16 60 4 13 -1 17 -19 17 -21 0 -26 -6 -32 -37z"/>
<path d="M16120 4856 l0 -175 47 -7 c60 -9 123 12 140 46 16 31 17 116 2 158
-16 48 -67 62 -133 36 -14 -5 -16 3 -16 55 0 54 -2 61 -20 61 -19 0 -20 -7
-20 -174z m150 5 c15 -29 12 -93 -6 -119 -12 -17 -25 -22 -60 -22 l-44 0 0 73
c0 41 3 77 7 80 3 4 26 7 49 7 33 0 46 -5 54 -19z"/>
<path d="M16850 4855 c0 -168 1 -175 20 -175 18 0 20 7 20 55 0 48 2 55 20 55
13 0 31 -19 55 -55 23 -37 41 -55 55 -55 11 0 20 2 20 4 0 3 -16 32 -36 65
l-36 60 29 43 c47 68 47 68 21 68 -16 0 -30 -10 -42 -31 -25 -42 -53 -69 -71
-69 -12 0 -15 18 -15 105 0 98 -1 105 -20 105 -19 0 -20 -7 -20 -175z"/>
<path d="M17940 4855 c0 -168 1 -175 20 -175 19 0 20 7 20 94 0 103 2 106 66
106 44 0 54 -24 54 -126 0 -67 2 -74 20 -74 18 0 20 7 20 78 0 156 -38 197
-142 157 -16 -6 -18 0 -18 54 0 54 -2 61 -20 61 -19 0 -20 -7 -20 -175z"/>
<path d="M18580 4855 c0 -168 1 -175 20 -175 19 0 20 7 20 94 0 103 2 106 66
106 44 0 54 -24 54 -126 0 -67 2 -74 20 -74 18 0 20 7 20 78 0 156 -38 197
-142 157 -16 -6 -18 0 -18 54 0 54 -2 61 -20 61 -19 0 -20 -7 -20 -175z"/>
<path d="M17220 4950 c0 -23 -4 -30 -20 -30 -15 0 -20 -7 -20 -25 0 -18 5 -25
20 -25 18 0 20 -7 20 -85 0 -79 2 -86 25 -101 32 -21 85 -11 85 16 0 14 -9 20
-32 22 l-33 3 -3 73 -3 72 36 0 c31 0 35 3 35 25 0 22 -4 25 -35 25 -32 0 -35
2 -35 30 0 23 -4 30 -20 30 -16 0 -20 -7 -20 -30z"/>
<path d="M17770 4950 c0 -23 -4 -30 -20 -30 -15 0 -20 -7 -20 -25 0 -18 5 -25
20 -25 18 0 20 -7 20 -85 0 -79 2 -86 25 -101 32 -21 85 -11 85 16 0 14 -9 20
-32 22 l-33 3 -3 73 -3 72 36 0 c31 0 35 3 35 25 0 22 -4 25 -35 25 -32 0 -35
2 -35 30 0 23 -4 30 -20 30 -16 0 -20 -7 -20 -30z"/>
<path d="M15523 4920 c-12 -5 -26 -18 -32 -29 -15 -27 -14 -86 2 -99 16 -13
15 -86 -2 -105 -11 -14 -15 -37 -13 -75 3 -33 62 -56 122 -48 70 9 102 55 84
123 -7 25 -50 43 -105 43 -28 0 -39 4 -39 15 0 9 9 15 24 15 70 0 105 36 94
95 -4 19 -1 25 13 25 12 0 19 7 19 20 0 16 -7 20 -37 20 -21 0 -54 2 -73 5
-19 3 -45 0 -57 -5z m92 -75 l0 -40 -45 0 c-42 0 -45 2 -48 28 -5 40 14 59 57
55 35 -3 36 -4 36 -43z m30 -186 c11 -34 -13 -50 -68 -47 -59 4 -81 26 -55 55
24 26 115 20 123 -8z"/>
<path d="M15794 4921 c-39 -17 -54 -51 -54 -123 0 -56 4 -71 24 -95 21 -24 32
-28 75 -28 39 0 56 5 73 23 20 20 23 33 23 102 0 67 -3 83 -21 100 -24 24 -87
35 -120 21z m90 -57 c18 -18 22 -95 6 -125 -12 -22 -78 -27 -98 -7 -7 7 -12
37 -12 68 0 31 5 61 12 68 17 17 74 15 92 -4z"/>
<path d="M16413 4923 c-24 -3 -33 -9 -33 -23 0 -16 9 -19 63 -22 54 -3 62 -6
65 -24 2 -17 -4 -23 -29 -28 -17 -3 -41 -6 -54 -6 -53 0 -76 -89 -34 -131 17
-17 28 -20 58 -14 46 10 80 10 109 0 19 -6 22 -4 22 18 0 14 -7 27 -15 31 -12
4 -15 23 -15 84 0 48 -5 85 -13 96 -13 18 -69 27 -124 19z m95 -160 c-3 -38
-3 -38 -48 -38 -43 0 -45 1 -45 30 0 26 4 31 35 36 62 11 61 12 58 -28z"/>
<path d="M16679 4919 c-35 -13 -49 -48 -49 -119 0 -80 11 -106 54 -120 47 -15
106 -4 106 21 0 16 -8 19 -48 19 -26 0 -53 5 -60 12 -7 7 -12 37 -12 68 0 31
5 61 12 68 7 7 34 12 60 12 40 0 48 3 48 19 0 28 -60 39 -111 20z"/>
<path d="M17434 4921 c-39 -17 -54 -51 -54 -123 0 -56 4 -71 24 -95 21 -24 32
-28 75 -28 39 0 56 5 73 23 20 20 23 33 23 102 0 67 -3 83 -21 100 -24 24 -87
35 -120 21z m90 -57 c18 -18 22 -95 6 -125 -12 -22 -78 -27 -98 -7 -7 7 -12
37 -12 68 0 31 5 61 12 68 17 17 74 15 92 -4z"/>
<path d="M18254 4920 c-38 -15 -54 -50 -54 -117 0 -34 5 -73 11 -87 16 -33 64
-49 128 -40 41 5 51 10 51 25 0 17 -8 19 -63 19 -65 0 -87 11 -87 42 0 16 9
18 75 18 l75 0 0 48 c-1 53 -14 77 -54 92 -32 12 -53 12 -82 0z m84 -52 c7 -7
12 -20 12 -30 0 -15 -9 -18 -55 -18 -46 0 -55 3 -55 18 0 27 20 42 55 42 17 0
36 -5 43 -12z"/>
<path d="M18894 4921 c-39 -17 -54 -51 -54 -123 0 -56 4 -71 24 -95 21 -24 32
-28 75 -28 39 0 56 5 73 23 20 20 23 33 23 102 0 67 -3 83 -21 100 -24 24 -87
35 -120 21z m90 -57 c18 -18 22 -95 6 -125 -12 -22 -78 -27 -98 -7 -7 7 -12
37 -12 68 0 31 5 61 12 68 17 17 74 15 92 -4z"/>
<path d="M19183 4915 c-18 -8 -33 -10 -33 -5 0 6 -9 10 -20 10 -19 0 -20 -7
-20 -120 0 -113 1 -120 20 -120 19 0 20 7 20 94 0 103 2 106 65 106 41 0 45
-10 45 -116 0 -77 2 -84 20 -84 19 0 20 7 20 94 0 102 2 106 59 106 44 0 51
-16 51 -112 0 -81 2 -88 20 -88 19 0 20 7 20 89 0 104 -10 137 -46 153 -21 10
-35 9 -71 -4 -39 -14 -48 -14 -71 -2 -33 17 -39 17 -79 -1z"/>
<path d="M19574 4920 c-38 -15 -54 -50 -54 -117 0 -34 5 -73 11 -87 16 -33 64
-49 128 -40 41 5 51 10 51 25 0 17 -8 19 -63 19 -65 0 -87 11 -87 42 0 16 9
18 75 18 l75 0 0 48 c-1 53 -14 77 -54 92 -32 12 -53 12 -82 0z m84 -52 c7 -7
12 -20 12 -30 0 -15 -9 -18 -55 -18 -46 0 -55 3 -55 18 0 27 20 42 55 42 17 0
36 -5 43 -12z"/>
<path d="M19848 4914 c-16 -8 -28 -10 -28 -4 0 5 -9 10 -20 10 -19 0 -20 -7
-20 -175 0 -168 1 -175 20 -175 17 0 20 7 20 53 l0 52 55 0 c43 0 59 5 77 23
20 20 23 33 23 103 0 76 -2 82 -28 105 -32 27 -60 30 -99 8z m76 -50 c21 -20
21 -93 0 -122 -12 -17 -25 -22 -60 -22 l-44 0 0 74 c0 50 4 76 13 79 26 11 76
6 91 -9z"/>
<path d="M20073 4923 c-24 -3 -33 -9 -33 -23 0 -16 9 -19 63 -22 54 -3 62 -6
65 -24 2 -17 -4 -23 -29 -28 -17 -3 -41 -6 -54 -6 -53 0 -76 -89 -34 -131 17
-17 28 -20 58 -14 46 10 80 10 109 0 19 -6 22 -4 22 18 0 14 -7 27 -15 31 -12
4 -15 23 -15 84 0 48 -5 85 -13 96 -13 18 -69 27 -124 19z m95 -160 c-3 -38
-3 -38 -48 -38 -43 0 -45 1 -45 30 0 26 4 31 35 36 62 11 61 12 58 -28z"/>
<path d="M20333 4920 c-12 -5 -26 -18 -32 -29 -15 -27 -14 -86 2 -99 16 -13
15 -86 -2 -105 -11 -14 -15 -37 -13 -75 3 -33 62 -56 122 -48 70 9 102 55 84
123 -7 25 -50 43 -105 43 -28 0 -39 4 -39 15 0 9 9 15 24 15 70 0 105 36 94
95 -4 19 -1 25 13 25 12 0 19 7 19 20 0 16 -7 20 -37 20 -21 0 -54 2 -73 5
-19 3 -45 0 -57 -5z m92 -75 l0 -40 -45 0 c-42 0 -45 2 -48 28 -5 40 14 59 57
55 35 -3 36 -4 36 -43z m30 -186 c11 -34 -13 -50 -68 -47 -59 4 -81 26 -55 55
24 26 115 20 123 -8z"/>
<path d="M20604 4920 c-38 -15 -54 -50 -54 -117 0 -34 5 -73 11 -87 16 -33 64
-49 128 -40 41 5 51 10 51 25 0 17 -8 19 -63 19 -65 0 -87 11 -87 42 0 16 9
18 75 18 l75 0 0 48 c-1 53 -14 77 -54 92 -32 12 -53 12 -82 0z m84 -52 c7 -7
12 -20 12 -30 0 -15 -9 -18 -55 -18 -46 0 -55 3 -55 18 0 27 20 42 55 42 17 0
36 -5 43 -12z"/>
<path d="M2380 3440 l0 -170 105 0 105 0 0 170 0 170 -105 0 -105 0 0 -170z"/>
<path d="M4567 3483 c-13 -107 -22 -139 -51 -195 l-34 -67 26 -28 25 -27 16
24 c99 151 213 221 361 222 206 2 344 -88 358 -232 3 -31 9 -49 16 -47 11 4
11 127 0 360 l-6 117 -87 -1 c-89 0 -134 -10 -113 -23 23 -14 12 -35 -23 -42
-19 -3 -35 -9 -35 -13 0 -3 27 -18 60 -33 39 -17 60 -32 60 -43 0 -20 -6 -19
-100 21 -90 37 -133 40 -205 14 -74 -26 -100 -29 -100 -11 0 8 26 24 60 36 59
22 59 22 27 30 -38 8 -43 36 -9 53 17 8 -6 11 -104 11 l-125 1 -17 -127z m177
86 c-3 -5 -10 -7 -15 -3 -5 3 -7 10 -3 15 3 5 10 7 15 3 5 -3 7 -10 3 -15z
m427 -12 c-13 -13 -26 -3 -16 12 3 6 11 8 17 5 6 -4 6 -10 -1 -17z m-431 -45
c0 -13 -12 -22 -22 -16 -10 6 -1 24 13 24 5 0 9 -4 9 -8z m434 -23 c-3 -5 -10
-7 -15 -3 -5 3 -7 10 -3 15 3 5 10 7 15 3 5 -3 7 -10 3 -15z m-454 -49 c0 -5
-4 -10 -10 -10 -5 0 -10 5 -10 10 0 6 5 10 10 10 6 0 10 -4 10 -10z m470 -8
c0 -13 -12 -22 -22 -16 -10 6 -1 24 13 24 5 0 9 -4 9 -8z"/>
<path d="M6522 3368 c2 -182 6 -242 16 -246 8 -2 12 9 12 40 0 49 36 133 71
165 38 35 128 71 207 84 157 26 299 -32 402 -162 21 -27 41 -54 43 -61 4 -9
14 -4 31 15 l25 27 -35 68 c-29 55 -38 89 -52 189 l-17 123 -125 -1 c-97 0
-120 -3 -102 -11 31 -16 27 -36 -10 -52 -25 -11 -28 -15 -13 -15 11 -1 40 -10
64 -22 33 -15 42 -22 33 -31 -8 -8 -22 -8 -54 2 -123 38 -129 39 -198 15 -37
-12 -80 -30 -98 -39 -39 -20 -52 -20 -52 0 0 9 24 26 60 42 62 28 75 42 39 42
-11 0 -29 5 -40 11 -19 10 -19 12 -4 29 15 16 14 18 -7 24 -13 3 -62 6 -111 6
l-87 0 2 -242z m559 209 c-1 -12 -15 -9 -19 4 -3 6 1 10 8 8 6 -3 11 -8 11
-12z m-421 -18 c0 -5 -7 -9 -15 -9 -15 0 -20 12 -9 23 8 8 24 -1 24 -14z m431
-52 c-13 -13 -26 -3 -16 12 3 6 11 8 17 5 6 -4 6 -10 -1 -17z m-440 -20 c-13
-13 -26 -3 -16 12 3 6 11 8 17 5 6 -4 6 -10 -1 -17z m459 -42 c0 -8 -4 -15 -9
-15 -13 0 -22 16 -14 24 11 11 23 6 23 -9z m-469 -18 c-1 -12 -15 -9 -19 4 -3
6 1 10 8 8 6 -3 11 -8 11 -12z"/>
<path d="M12440 3440 l0 -170 110 0 110 0 0 170 0 170 -110 0 -110 0 0 -170z"/>
<path d="M4866 3581 c-16 -6 -12 -9 21 -18 47 -12 155 3 131 18 -16 11 -126
10 -152 0z"/>
<path d="M6792 3581 c-26 -16 86 -28 136 -14 18 4 20 8 10 14 -17 11 -129 11
-146 0z"/>
<path d="M7208 3163 c7 -3 16 -2 19 1 4 3 -2 6 -13 5 -11 0 -14 -3 -6 -6z"/>
<path d="M4608 3153 c6 -2 18 -2 25 0 6 3 1 5 -13 5 -14 0 -19 -2 -12 -5z"/>
<path d="M7143 3153 c9 -2 23 -2 30 0 6 3 -1 5 -18 5 -16 0 -22 -2 -12 -5z"/>
<path d="M4740 3134 c47 -7 171 -15 275 -18 184 -4 186 -4 44 4 -80 4 -194 13
-254 19 -141 14 -173 12 -65 -5z"/>
<path d="M6975 3138 c-38 -4 -146 -13 -240 -17 l-170 -10 195 5 c107 3 233 11
280 18 96 15 46 19 -65 4z"/>
</g>
</svg>
